<svg width="128" height="96" viewBox="0 0 128 96" fill="none" xmlns="http://www.w3.org/2000/svg">
<path fill-rule="evenodd" clip-rule="evenodd" d="M66.805 31.6542L93.1222 0L98.8912 4.79636L77.9845 29.9428L110.754 14.5714L117.622 29.2125L109.743 32.9085C108.369 33.4483 102.286 35.559 93.0023 34.715C88.9123 34.3431 74.0918 32.556 66.805 31.6542ZM10.6319 79.3986L37.6453 66.7273L37.6361 66.7384L50.1239 60.7973L55.7302 61.6369L55.7191 61.6418L123.337 71.7742L127.852 41.646L100.781 37.5894L100.778 37.5908L78.8878 34.3088L4.51464 23.1642L0 53.2924L21.3773 56.4957L3.76421 64.7576L10.6319 79.3986ZM50.4579 63.0518C48.6934 63.4199 46.2139 64.0494 43.6152 65.0656C42.2676 65.5926 38.9883 67.0826 36.3328 68.3061L17.5718 90.8717L23.3408 95.6681L50.4579 63.0518Z" fill="#FFD9AF"/>
</svg>
